<?xml version="1.0" encoding="utf-8"?>
<!-- Generator: Adobe Illustrator 19.0.0, SVG Export Plug-In . SVG Version: 6.00 Build 0)  -->
<svg version="1.1" id="Layer_1" xmlns="http://www.w3.org/2000/svg" xmlns:xlink="http://www.w3.org/1999/xlink" x="0px" y="0px"
	 viewBox="0 0 96 96" style="enable-background:new 0 0 96 96;" xml:space="preserve">
<style type="text/css">
	.st0{fill:#333333;}
</style>
<g id="XMLID_2_">
	<path id="XMLID_8_" class="st0" d="M45.9,30v36c0,0.6-0.2,1.1-0.6,1.5c-0.4,0.4-0.9,0.6-1.5,0.6c-0.6,0-1.1-0.2-1.5-0.6l-11-11
		h-8.7c-0.6,0-1.1-0.2-1.5-0.6c-0.4-0.4-0.6-0.9-0.6-1.5V41.7c0-0.6,0.2-1.1,0.6-1.5c0.4-0.4,0.9-0.6,1.5-0.6h8.7l11-11
		c0.4-0.4,0.9-0.6,1.5-0.6c0.6,0,1.1,0.2,1.5,0.6S45.9,29.4,45.9,30z M58.6,48c0,1.7-0.5,3.2-1.4,4.7s-2.2,2.5-3.7,3.1
		c-0.2,0.1-0.5,0.2-0.8,0.2c-0.6,0-1.1-0.2-1.5-0.6c-0.4-0.4-0.6-0.9-0.6-1.5c0-0.5,0.1-0.9,0.4-1.2c0.3-0.3,0.6-0.6,1-0.8
		c0.4-0.2,0.7-0.5,1.1-0.8c0.4-0.3,0.7-0.7,1-1.2s0.4-1.1,0.4-1.9s-0.1-1.4-0.4-1.9s-0.6-0.9-1-1.2s-0.7-0.5-1.1-0.8
		c-0.4-0.2-0.7-0.5-1-0.8c-0.3-0.3-0.4-0.7-0.4-1.2c0-0.6,0.2-1.1,0.6-1.5c0.4-0.4,0.9-0.6,1.5-0.6c0.3,0,0.6,0.1,0.8,0.2
		c1.5,0.6,2.8,1.6,3.7,3.1S58.6,46.3,58.6,48z M67,48c0,3.4-0.9,6.5-2.8,9.3c-1.9,2.9-4.4,4.9-7.4,6.2c-0.3,0.1-0.6,0.2-0.8,0.2
		c-0.6,0-1.1-0.2-1.5-0.6c-0.4-0.4-0.6-0.9-0.6-1.5c0-0.9,0.4-1.5,1.3-2c1.2-0.6,2.1-1.1,2.5-1.5c1.6-1.2,2.9-2.7,3.8-4.5
		c0.9-1.8,1.4-3.7,1.4-5.7s-0.5-3.9-1.4-5.7s-2.2-3.3-3.8-4.5c-0.4-0.3-1.3-0.8-2.5-1.5c-0.9-0.4-1.3-1.1-1.3-2
		c0-0.6,0.2-1.1,0.6-1.5c0.4-0.4,0.9-0.6,1.5-0.6c0.3,0,0.6,0.1,0.9,0.2c3.1,1.3,5.6,3.4,7.4,6.2S67,44.6,67,48z M75.5,48
		c0,5.1-1.4,9.7-4.2,14s-6.5,7.4-11.2,9.4c-0.3,0.1-0.6,0.2-0.9,0.2c-0.6,0-1.1-0.2-1.5-0.6c-0.4-0.4-0.6-0.9-0.6-1.5
		c0-0.8,0.4-1.4,1.3-2c0.2-0.1,0.4-0.2,0.7-0.3c0.3-0.1,0.6-0.3,0.7-0.3c1-0.6,1.9-1.1,2.7-1.7c2.7-2,4.8-4.5,6.3-7.5
		c1.5-3,2.3-6.2,2.3-9.6s-0.8-6.6-2.3-9.6c-1.5-3-3.6-5.5-6.3-7.5c-0.8-0.6-1.7-1.1-2.7-1.7c-0.2-0.1-0.4-0.2-0.7-0.3
		c-0.3-0.1-0.6-0.3-0.7-0.3c-0.9-0.5-1.3-1.2-1.3-2c0-0.6,0.2-1.1,0.6-1.5c0.4-0.4,0.9-0.6,1.5-0.6c0.3,0,0.6,0.1,0.9,0.2
		c4.6,2,8.4,5.1,11.2,9.4S75.5,42.9,75.5,48z"/>
</g>
</svg>
